<?xml version="1.0" encoding="iso-8859-1"?>
<!-- Generator: Adobe Illustrator 19.0.0, SVG Export Plug-In . SVG Version: 6.00 Build 0)  -->
<svg version="1.1" id="Layer_1" xmlns="http://www.w3.org/2000/svg" xmlns:xlink="http://www.w3.org/1999/xlink" x="0px" y="0px"
	 viewBox="0 0 512 512" style="enable-background:new 0 0 512 512;" xml:space="preserve">
<g>
	<polygon style="fill:#2D2829;" points="128,512 112,512 112,493.504 185.424,387.448 198.576,396.552 128,498.504 	"/>
	<polygon style="fill:#2D2829;" points="400,512 384,512 384,498.504 313.424,396.552 326.576,387.448 400,493.504 	"/>
	<rect x="248" y="392" style="fill:#2D2829;" width="16" height="120"/>
</g>
<rect x="24" y="64" style="fill:#EFF4F7;" width="464" height="304"/>
<g>
	<rect x="8" y="32" style="fill:#474545;" width="496" height="32"/>
	<rect x="160" y="368" style="fill:#474545;" width="192" height="32"/>
</g>
<polygon style="fill:#2D2829;" points="328,32 184,32 184,16 200,0 312,0 328,16 "/>
<rect x="216" y="192" style="fill:#F4608A;" width="240" height="144"/>
<g>
	<rect x="232" y="296" style="fill:#FFFFFF;" width="16" height="24"/>
	<rect x="264" y="248" style="fill:#FFFFFF;" width="16" height="72"/>
	<rect x="296" y="264" style="fill:#FFFFFF;" width="16" height="56"/>
	<rect x="328" y="232" style="fill:#FFFFFF;" width="16" height="88"/>
	<rect x="424" y="240" style="fill:#FFFFFF;" width="16" height="80"/>
	<rect x="360" y="272" style="fill:#FFFFFF;" width="16" height="48"/>
	<rect x="392" y="208" style="fill:#FFFFFF;" width="16" height="112"/>
</g>
<g>
	<rect x="216" y="160" style="fill:#CFD3D6;" width="240" height="16"/>
	<rect x="216" y="128" style="fill:#CFD3D6;" width="240" height="16"/>
	<rect x="56" y="256" style="fill:#CFD3D6;" width="144" height="16"/>
	<rect x="56" y="288" style="fill:#CFD3D6;" width="144" height="16"/>
	<rect x="56" y="320" style="fill:#CFD3D6;" width="80" height="16"/>
</g>
<g>
	<rect x="216" y="96" style="fill:#474545;" width="16" height="16"/>
	<rect x="248" y="96" style="fill:#474545;" width="16" height="16"/>
	<rect x="280" y="96" style="fill:#474545;" width="16" height="16"/>
</g>
<path style="fill:#FFDC73;" d="M120,112v64H56C56,140.64,84.64,112,120,112z"/>
<path style="fill:#474545;" d="M184,176c0,17.68-7.2,33.68-18.72,45.28L120,176H184z"/>
<path style="fill:#F4608A;" d="M200,160h-64V96C171.384,96,200,124.616,200,160z"/>
<path style="fill:#FFCB59;" d="M165.28,221.28C153.68,232.8,137.68,240,120,240c-35.36,0-64-28.64-64-64h64L165.28,221.28z"/>
<g>
</g>
<g>
</g>
<g>
</g>
<g>
</g>
<g>
</g>
<g>
</g>
<g>
</g>
<g>
</g>
<g>
</g>
<g>
</g>
<g>
</g>
<g>
</g>
<g>
</g>
<g>
</g>
<g>
</g>
</svg>
