<svg height="512pt" viewBox="0 -4 512 511" width="512pt" xmlns="http://www.w3.org/2000/svg"><path d="m176.050781 266.210938c-2.859375 42.707031-2.34375 136.683593-2.34375 136.683593l164.621094-12.59375-81.835937-101.011719" fill="#bdd9e5"/><path d="m36.214844 423.011719h431.851562v80.125h-431.851562zm0 0" fill="#5c5e70"/><path d="m36.214844 402.890625h431.851562v44.925781h-431.851562zm0 0" fill="#3b3d4c"/><path d="m349.132812 103.789062.003907-43.070312c0-33.257812-26.960938-60.21875-60.21875-60.21875-33.257813 0-60.21875 26.960938-60.21875 60.21875l-.003907 43.070312c0 33.261719 26.960938 60.222657 60.21875 60.222657 33.261719 0 60.21875-26.960938 60.21875-60.222657zm0 0" fill="#ffdc8d"/><path d="m251.503906 105.753906v-45.027344c0-16.628906 6.742188-31.6875 17.640625-42.585937 8.347657-8.347656 19.121094-14.253906 31.183594-16.558594-3.695313-.710937-7.503906-1.082031-11.402344-1.082031-16.632812 0-31.6875 6.742188-42.585937 17.640625-10.898438 10.898437-17.640625 25.957031-17.640625 42.585937v6.707032c-6.039063-1.519532-12.699219.0625-17.421875 4.789062-7.152344 7.148438-7.152344 18.742188 0 25.890625 4.722656 4.722657 11.382812 6.308594 17.421875 4.789063l-.003907.886718c0 33.265626 26.964844 60.226563 60.226563 60.226563 3.902344 0 7.707031-.371094 11.402344-1.078125-27.808594-5.320312-48.820313-27.824219-48.820313-57.183594zm0 0" fill="#e8c57e"/><path d="m349.132812 60.726562c-42.675781 8.203126-79.027343-17.257812-79.027343-17.257812-4.632813 13.015625-10.515625 20.292969-16.019531 24.308594-6.257813 4.5625-14.519532 4.753906-21.382813 1.167968-1.28125-.667968-2.628906-1.175781-4.011719-1.519531v-6.699219c0-16.632812 6.742188-31.6875 17.640625-42.585937 10.898438-10.898437 25.957031-17.640625 42.585938-17.640625 33.253906 0 60.214843 26.964844 60.214843 60.226562zm0 0" fill="#f78e39"/><path d="m251.511719 60.730469c0-16.632813 6.742187-31.6875 17.640625-42.585938 8.339844-8.339843 19.101562-14.246093 31.148437-16.554687-3.683593-.703125-7.484375-1.085938-11.375-1.085938-16.632812 0-31.6875 6.738282-42.589843 17.636719-10.898438 10.898437-17.636719 25.957031-17.636719 42.585937v6.703126c1.378906.339843 2.726562.847656 4.011719 1.519531 5.953124 3.113281 12.960937 3.371093 18.800781.40625zm0 0" fill="#e27727"/><path d="m324.429688 107.457031c-4.265626 0-7.71875-3.453125-7.71875-7.71875v-10.140625c0-4.265625 3.453124-7.71875 7.71875-7.71875 4.261718 0 7.71875 3.453125 7.71875 7.71875v10.140625c0 4.265625-3.457032 7.71875-7.71875 7.71875zm0 0" fill="#3b3d4c"/><path d="m292.527344 107.457031c-4.265625 0-7.71875-3.453125-7.71875-7.71875v-10.140625c0-4.265625 3.453125-7.71875 7.71875-7.71875 4.261718 0 7.71875 3.453125 7.71875 7.71875v10.140625c0 4.265625-3.457032 7.71875-7.71875 7.71875zm0 0" fill="#3b3d4c"/><path d="m216.800781 308.914062c0-41.714843 9.265625-83.90625 16.976563-111.785156 5.300781-19.175781 22.761718-32.441406 42.660156-32.441406 19.894531 0 37.355469 13.265625 42.660156 32.441406 7.707032 27.878906 16.972656 70.070313 16.972656 111.785156" fill="#e3f4fc"/><path d="m276.429688 164.6875c-10.539063 0-19.789063 13.265625-22.601563 32.4375-4.074219 27.882812-8.984375 70.078125-8.984375 111.789062h-28.042969c0-41.710937 9.261719-83.90625 16.972657-111.789062 5.296874-19.171875 22.761718-32.4375 42.65625-32.4375zm0 0" fill="#bdd9e5"/><path d="m504.285156 398.671875c0 6.71875-2.726562 12.800781-7.132812 17.207031s-10.488282 7.132813-17.207032 7.132813h-455.605468c-13.441406 0-24.339844-10.898438-24.339844-24.339844 0-3.582031.773438-6.988281 2.183594-10.054687 1.203125-2.675782 2.890625-5.09375 4.949218-7.152344 4.402344-4.40625 10.484376-7.132813 17.207032-7.132813h455.605468c9.859376 0 18.339844 5.855469 22.15625 14.285157 1.410157 3.066406 2.183594 6.472656 2.183594 10.054687zm0 0" fill="#bdd9e5"/><path d="m502.101562 388.617188c-1.214843 2.675781-2.902343 5.09375-4.949218 7.140624-4.40625 4.40625-10.488282 7.132813-17.207032 7.132813h-455.605468c-9.847656 0-18.339844-5.855469-22.15625-14.273437 1.203125-2.675782 2.890625-5.09375 4.949218-7.152344 4.402344-4.40625 10.484376-7.132813 17.207032-7.132813h455.605468c9.859376 0 18.339844 5.855469 22.15625 14.285157zm0 0" fill="#e3f4fc"/><path d="m103.289062 241.996094h-43.070312c-33.257812-.003906-60.21875 26.960937-60.21875 60.21875 0 33.257812 26.960938 60.21875 60.21875 60.21875l43.070312.003906c33.261719 0 60.222657-26.964844 60.222657-60.222656 0-33.257813-26.960938-60.21875-60.222657-60.21875zm0 0" fill="#ffdc8d"/><path d="m105.253906 339.628906h-45.027344c-16.628906 0-31.6875-6.742187-42.585937-17.640625-8.347656-8.347656-14.253906-19.121093-16.558594-31.183593-.710937 3.695312-1.082031 7.503906-1.082031 11.402343 0 16.632813 6.742188 31.6875 17.640625 42.585938 10.898437 10.898437 25.957031 17.640625 42.585937 17.640625h6.707032c-1.519532 6.039062.0625 12.699218 4.789062 17.421875 7.148438 7.152343 18.742188 7.152343 25.890625 0 4.722657-4.722657 6.308594-11.382813 4.789063-17.421875l.886718.003906c33.265626 0 60.226563-26.964844 60.226563-60.226562 0-3.902344-.371094-7.710938-1.078125-11.402344-5.320312 27.808594-27.824219 48.820312-57.183594 48.820312zm0 0" fill="#e8c57e"/><path d="m60.226562 241.996094c8.203126 42.679687-17.257812 79.03125-17.257812 79.03125 13.015625 4.632812 20.292969 10.515625 24.308594 16.019531 4.5625 6.253906 4.753906 14.519531 1.167968 21.378906-.667968 1.285157-1.175781 2.632813-1.519531 4.011719h-6.699219c-16.632812 0-31.6875-6.738281-42.585937-17.636719-10.898437-10.898437-17.640625-25.957031-17.640625-42.585937 0-33.253906 26.964844-60.21875 60.226562-60.21875zm0 0" fill="#5c5e70"/><g fill="#3b3d4c"><path d="m60.226562 339.621094c-16.628906 0-31.6875-6.742188-42.585937-17.640625-8.339844-8.339844-14.242187-19.101563-16.550781-31.152344-.703125 3.6875-1.089844 7.488281-1.089844 11.378906 0 16.632813 6.742188 31.6875 17.640625 42.585938 10.898437 10.898437 25.957031 17.640625 42.585937 17.640625h6.699219c.34375-1.378906.851563-2.726563 1.523438-4.011719 3.109375-5.953125 3.371093-12.960937.402343-18.800781zm0 0"/><path d="m99.238281 274.421875h-10.140625c-4.265625 0-7.71875-3.457031-7.71875-7.71875s3.453125-7.71875 7.71875-7.71875h10.140625c4.265625 0 7.71875 3.457031 7.71875 7.71875s-3.453125 7.71875-7.71875 7.71875zm0 0"/><path d="m99.238281 306.324219h-10.140625c-4.265625 0-7.71875-3.457031-7.71875-7.71875s3.453125-7.71875 7.71875-7.71875h10.140625c4.265625 0 7.71875 3.457031 7.71875 7.71875s-3.453125 7.71875-7.71875 7.71875zm0 0"/></g><path d="m308.414062 374.332031c-41.714843 0-83.90625-9.265625-111.785156-16.976562-19.175781-5.300781-32.441406-22.761719-32.441406-42.660157 0-19.894531 13.265625-37.359374 32.441406-42.660156 27.878906-7.707031 70.070313-16.972656 111.785156-16.972656" fill="#4bc999"/><path d="m164.1875 314.703125c0 10.539063 13.265625 19.789063 32.4375 22.597656 27.882812 4.078125 70.078125 8.984375 111.789062 8.984375v28.046875c-41.710937 0-83.90625-9.261719-111.789062-16.972656-19.171875-5.300781-32.4375-22.765625-32.4375-42.65625zm0 0" fill="#3aaf80"/><path d="m504.285156 344.796875v29.546875h-195.867187c-3.121094-9.460938-5.363281-18.609375-6.90625-27.347656-9.519531-53.617188 6.90625-91.933594 6.90625-91.933594s28.929687-41.269531 67.820312-60.039062c38.890625-18.773438 71.011719 47.011718 71.011719 47.011718l-18.710938 18.710938s-16.097656-31.523438-31.511718-31.523438c-23.476563 0-55.65625 55.65625-55.65625 75.777344 0 20.117188 162.914062 39.796875 162.914062 39.796875zm0 0" fill="#f25174"/><path d="m504.285156 354.882812v19.460938h-195.867187c-3.121094-9.460938-5.363281-18.609375-6.90625-27.347656zm0 0" fill="#d83f67"/><path d="m428.542969 268.453125c-1.976563 0-3.953125-.753906-5.460938-2.261719-3.011719-3.015625-3.011719-7.902344 0-10.914062l30.847657-30.847656c3.015624-3.015626 7.902343-3.015626 10.917968 0 3.011719 3.015624 3.011719 7.898437 0 10.914062l-30.847656 30.847656c-1.507812 1.507813-3.484375 2.261719-5.457031 2.261719zm0 0" fill="#5c5e70"/><path d="m504.28125 382.0625c-4.261719 0-7.71875-3.457031-7.71875-7.71875v-45.429688c0-4.261718 3.457031-7.71875 7.71875-7.71875 4.265625 0 7.71875 3.457032 7.71875 7.71875v45.429688c0 4.261719-3.457031 7.71875-7.71875 7.71875zm0 0" fill="#5c5e70"/><path d="m401.0625 240.339844c-1.164062 9.292968-4.292969 19.019531-11.648438 24.8125-4.261718 3.355468-9.304687 5.035156-15.078124 5.035156-5.023438 0-10.601563-1.265625-16.703126-3.808594-3.933593-1.636718-5.792968-6.15625-4.160156-10.097656 1.636719-3.929688 6.167969-5.792969 10.097656-4.15625 7.566407 3.148438 13.050782 3.457031 16.300782.894531 3.542968-2.789062 5.269531-8.871093 5.960937-15.394531.71875-6.96875.257813-14.441406-.453125-18.949219-.667968-4.207031 2.210938-8.160156 6.421875-8.828125 4.21875-.660156 8.160157 2.210938 8.828125 6.421875.308594 2.007813 1.84375 12.710938.433594 24.070313zm0 0" fill="#ffdc8d"/><path d="m382.136719 199.988281c-2.75 3.261719-7.617188 3.671875-10.878907.925781-5.226562-4.40625-10.703124-5.527343-16.929687-4.300781-8.035156 1.554688-17.308594 7.007813-28.855469 14.304688-12.445312 7.863281-24.195312 15.28125-36.074218 15.28125-29.628907 0-41.988282-24.636719-42.503907-25.6875-1.871093-3.828125-.277343-8.449219 3.550781-10.320313 3.820313-1.863281 8.429688-.289062 10.300782 3.519532.414062.800781 8.902344 17.050781 28.652344 17.050781 7.410156 0 17.785156-6.554688 27.820312-12.894531 12.246094-7.738282 26.4375-16.691407 40.734375-17.15625 7.820313-.265626 15.671875 2.007812 23.257813 8.410156 3.261718 2.746094 3.671874 7.613281.925781 10.867187zm0 0" fill="#bdd9e5"/><path d="m279.167969 449.464844c-.789063 3.613281-3.980469 6.070312-7.53125 6.070312-.546875 0-1.101563-.050781-1.65625-.171875-10.332031-2.253906-19.710938-6.308593-28.066407-12.074219-18.484374-12.769531-31.953124-33.921874-39.601562-62.550781-8.097656-30.320312-6.855469-58.1875-6.792969-59.363281.207031-4.257812 3.820313-7.542969 8.078125-7.335938 4.261719.207032 7.546875 3.828126 7.339844 8.089844-.019531.492188-1.144531 27.066406 6.378906 54.964844 7.226563 26.832031 19.554688 45.480469 36.761719 55.6875 5.835937 3.480469 12.238281 5.980469 19.195313 7.492188 4.167968.917968 6.800781 5.023437 5.894531 9.191406zm0 0" fill="#ffdc8d"/><path d="m401.0625 240.339844c-1.164062 9.292968-4.292969 19.019531-11.648438 24.8125-4.261718 3.355468-9.304687 5.035156-15.078124 5.035156-5.023438 0-10.601563-1.265625-16.703126-3.808594-3.933593-1.636718-5.792968-6.15625-4.160156-10.097656 1.636719-3.929688 6.167969-5.792969 10.097656-4.15625 7.566407 3.148438 13.050782 3.457031 16.300782.894531 3.542968-2.789062 5.269531-8.871093 5.960937-15.394531zm0 0" fill="#bdd9e5"/><path d="m350.136719 277.308594c6.152343-12.460938 14.902343-25.730469 24.171875-35.167969-3.671875-2.953125-8.328125-4.730469-13.40625-4.730469-11.824219 0-21.410156 9.585938-21.410156 21.410156 0 7.894532 4.285156 14.773438 10.644531 18.488282zm0 0" fill="#f25174"/><path d="m382.136719 199.988281c-2.75 3.261719-7.617188 3.671875-10.878907.925781-5.226562-4.40625-10.703124-5.527343-16.929687-4.300781l3.625-15.902343c7.820313-.265626 15.671875 2.007812 23.257813 8.410156 3.261718 2.746094 3.671874 7.613281.925781 10.867187zm0 0" fill="#ffdc8d"/><path d="m254.078125 432.78125-12.164063 10.507812c-18.484374-12.769531-31.953124-33.921874-39.601562-62.550781-8.097656-30.320312-6.855469-58.1875-6.792969-59.363281.207031-4.257812 3.820313-7.542969 8.078125-7.335938 4.261719.207032 7.546875 3.828126 7.339844 8.089844-.019531.492188-1.144531 27.066406 6.378906 54.964844 7.226563 26.832031 19.554688 45.480469 36.761719 55.6875zm0 0" fill="#3aaf80"/></svg>